<svg width="24" height="24" viewBox="0 0 24 24" fill="none" xmlns="http://www.w3.org/2000/svg">
<path d="M10.3981 15.5963C8.11518 16.3142 8.11518 14.3996 7.20203 14.1603M13.5941 17.0322V15.1798C13.6112 14.9516 13.5818 14.7222 13.5078 14.5068C13.4338 14.2914 13.3169 14.0949 13.1649 13.9306C14.5986 13.763 16.1053 13.1934 16.1053 10.58C16.1051 9.91172 15.8599 9.26907 15.4204 8.78505C15.6285 8.20038 15.6138 7.55413 15.3793 6.98054C15.3793 6.98054 14.8405 6.81301 13.5941 7.68894C12.5476 7.39161 11.4445 7.39161 10.3981 7.68894C9.1516 6.81301 8.61285 6.98054 8.61285 6.98054C8.37834 7.55413 8.36362 8.20038 8.57175 8.78505C8.12893 9.27266 7.88348 9.92112 7.88689 10.5944C7.88689 13.1887 9.39359 13.7582 10.8272 13.9449C10.677 14.1076 10.5612 14.3017 10.4872 14.5145C10.4133 14.7272 10.3829 14.954 10.3981 15.1798V17.0322" stroke="#3D5160" stroke-linecap="round" stroke-linejoin="round"/>
<path fill-rule="evenodd" clip-rule="evenodd" d="M12 22C17.5228 22 22 17.5228 22 12C22 6.47715 17.5228 2 12 2C6.47715 2 2 6.47715 2 12C2 17.5228 6.47715 22 12 22ZM12 20.6667C16.7865 20.6667 20.6667 16.7865 20.6667 12C20.6667 7.21353 16.7865 3.33333 12 3.33333C7.21353 3.33333 3.33333 7.21353 3.33333 12C3.33333 16.7865 7.21353 20.6667 12 20.6667Z" fill="#3D5160"/>
<path d="M11.3333 0H12.6667V4.66667H11.3333V0Z" fill="#3D5160"/>
<path d="M11.3333 19.3333H12.6667V24H11.3333V19.3333Z" fill="#3D5160"/>
<path d="M4.66667 11.3333V12.6667H0L5.82818e-08 11.3333H4.66667Z" fill="#3D5160"/>
<path d="M24 11.3333V12.6667H19.3333V11.3333H24Z" fill="#3D5160"/>
</svg>
